<mxfile host="app.diagrams.net" modified="2021-03-04T01:01:54.619Z" agent="5.0 (Windows NT 10.0; Win64; x64) AppleWebKit/537.36 (KHTML, like Gecko) Chrome/88.0.4324.182 Safari/537.36 Edg/88.0.705.81" etag="izMKVnlyu4IyF_wXXIQf" version="14.4.4" type="github">
  <diagram id="8HYjZ4v-fJ6-e9nsEgGl" name="第 1 页">
    <mxGraphModel dx="865" dy="760" grid="1" gridSize="10" guides="1" tooltips="1" connect="1" arrows="1" fold="1" page="1" pageScale="1" pageWidth="827" pageHeight="1169" math="0" shadow="0">
      <root>
        <mxCell id="0" />
        <mxCell id="1" parent="0" />
        <mxCell id="KJvGZSESiML9NRiCF27s-1" value="" style="rounded=0;whiteSpace=wrap;html=1;" vertex="1" parent="1">
          <mxGeometry x="70" y="70" width="110" height="440" as="geometry" />
        </mxCell>
        <mxCell id="KJvGZSESiML9NRiCF27s-2" value="" style="ellipse;whiteSpace=wrap;html=1;aspect=fixed;" vertex="1" parent="1">
          <mxGeometry x="160" y="100" width="10" height="10" as="geometry" />
        </mxCell>
        <mxCell id="KJvGZSESiML9NRiCF27s-3" value="" style="ellipse;whiteSpace=wrap;html=1;aspect=fixed;" vertex="1" parent="1">
          <mxGeometry x="160" y="120" width="10" height="10" as="geometry" />
        </mxCell>
        <mxCell id="KJvGZSESiML9NRiCF27s-4" value="" style="ellipse;whiteSpace=wrap;html=1;aspect=fixed;" vertex="1" parent="1">
          <mxGeometry x="160" y="140" width="10" height="10" as="geometry" />
        </mxCell>
        <mxCell id="KJvGZSESiML9NRiCF27s-5" value="" style="ellipse;whiteSpace=wrap;html=1;aspect=fixed;" vertex="1" parent="1">
          <mxGeometry x="160" y="160" width="10" height="10" as="geometry" />
        </mxCell>
        <mxCell id="KJvGZSESiML9NRiCF27s-6" value="" style="ellipse;whiteSpace=wrap;html=1;aspect=fixed;" vertex="1" parent="1">
          <mxGeometry x="160" y="180" width="10" height="10" as="geometry" />
        </mxCell>
        <mxCell id="KJvGZSESiML9NRiCF27s-7" value="" style="ellipse;whiteSpace=wrap;html=1;aspect=fixed;" vertex="1" parent="1">
          <mxGeometry x="160" y="200" width="10" height="10" as="geometry" />
        </mxCell>
        <mxCell id="KJvGZSESiML9NRiCF27s-8" value="" style="ellipse;whiteSpace=wrap;html=1;aspect=fixed;" vertex="1" parent="1">
          <mxGeometry x="160" y="220" width="10" height="10" as="geometry" />
        </mxCell>
        <mxCell id="KJvGZSESiML9NRiCF27s-9" value="" style="ellipse;whiteSpace=wrap;html=1;aspect=fixed;" vertex="1" parent="1">
          <mxGeometry x="160" y="240" width="10" height="10" as="geometry" />
        </mxCell>
        <mxCell id="KJvGZSESiML9NRiCF27s-10" value="" style="ellipse;whiteSpace=wrap;html=1;aspect=fixed;" vertex="1" parent="1">
          <mxGeometry x="160" y="280" width="10" height="10" as="geometry" />
        </mxCell>
        <mxCell id="KJvGZSESiML9NRiCF27s-11" value="" style="ellipse;whiteSpace=wrap;html=1;aspect=fixed;" vertex="1" parent="1">
          <mxGeometry x="160" y="260" width="10" height="10" as="geometry" />
        </mxCell>
        <mxCell id="KJvGZSESiML9NRiCF27s-13" value="" style="ellipse;whiteSpace=wrap;html=1;aspect=fixed;" vertex="1" parent="1">
          <mxGeometry x="160" y="300" width="10" height="10" as="geometry" />
        </mxCell>
        <mxCell id="KJvGZSESiML9NRiCF27s-14" value="" style="ellipse;whiteSpace=wrap;html=1;aspect=fixed;" vertex="1" parent="1">
          <mxGeometry x="160" y="320" width="10" height="10" as="geometry" />
        </mxCell>
        <mxCell id="KJvGZSESiML9NRiCF27s-15" value="" style="ellipse;whiteSpace=wrap;html=1;aspect=fixed;" vertex="1" parent="1">
          <mxGeometry x="160" y="340" width="10" height="10" as="geometry" />
        </mxCell>
        <mxCell id="KJvGZSESiML9NRiCF27s-16" value="" style="ellipse;whiteSpace=wrap;html=1;aspect=fixed;" vertex="1" parent="1">
          <mxGeometry x="160" y="360" width="10" height="10" as="geometry" />
        </mxCell>
        <mxCell id="KJvGZSESiML9NRiCF27s-17" value="" style="ellipse;whiteSpace=wrap;html=1;aspect=fixed;" vertex="1" parent="1">
          <mxGeometry x="160" y="380" width="10" height="10" as="geometry" />
        </mxCell>
        <mxCell id="KJvGZSESiML9NRiCF27s-18" value="" style="ellipse;whiteSpace=wrap;html=1;aspect=fixed;" vertex="1" parent="1">
          <mxGeometry x="160" y="400" width="10" height="10" as="geometry" />
        </mxCell>
        <mxCell id="KJvGZSESiML9NRiCF27s-19" value="" style="ellipse;whiteSpace=wrap;html=1;aspect=fixed;" vertex="1" parent="1">
          <mxGeometry x="160" y="420" width="10" height="10" as="geometry" />
        </mxCell>
        <mxCell id="KJvGZSESiML9NRiCF27s-20" value="" style="ellipse;whiteSpace=wrap;html=1;aspect=fixed;" vertex="1" parent="1">
          <mxGeometry x="160" y="440" width="10" height="10" as="geometry" />
        </mxCell>
        <mxCell id="KJvGZSESiML9NRiCF27s-21" value="" style="ellipse;whiteSpace=wrap;html=1;aspect=fixed;" vertex="1" parent="1">
          <mxGeometry x="160" y="480" width="10" height="10" as="geometry" />
        </mxCell>
        <mxCell id="KJvGZSESiML9NRiCF27s-22" value="" style="ellipse;whiteSpace=wrap;html=1;aspect=fixed;" vertex="1" parent="1">
          <mxGeometry x="160" y="460" width="10" height="10" as="geometry" />
        </mxCell>
        <mxCell id="KJvGZSESiML9NRiCF27s-23" value="" style="ellipse;whiteSpace=wrap;html=1;aspect=fixed;" vertex="1" parent="1">
          <mxGeometry x="80" y="100" width="10" height="10" as="geometry" />
        </mxCell>
        <mxCell id="KJvGZSESiML9NRiCF27s-24" value="" style="ellipse;whiteSpace=wrap;html=1;aspect=fixed;" vertex="1" parent="1">
          <mxGeometry x="80" y="120" width="10" height="10" as="geometry" />
        </mxCell>
        <mxCell id="KJvGZSESiML9NRiCF27s-25" value="" style="ellipse;whiteSpace=wrap;html=1;aspect=fixed;" vertex="1" parent="1">
          <mxGeometry x="80" y="140" width="10" height="10" as="geometry" />
        </mxCell>
        <mxCell id="KJvGZSESiML9NRiCF27s-26" value="" style="ellipse;whiteSpace=wrap;html=1;aspect=fixed;" vertex="1" parent="1">
          <mxGeometry x="80" y="160" width="10" height="10" as="geometry" />
        </mxCell>
        <mxCell id="KJvGZSESiML9NRiCF27s-27" value="" style="ellipse;whiteSpace=wrap;html=1;aspect=fixed;" vertex="1" parent="1">
          <mxGeometry x="80" y="180" width="10" height="10" as="geometry" />
        </mxCell>
        <mxCell id="KJvGZSESiML9NRiCF27s-28" value="" style="ellipse;whiteSpace=wrap;html=1;aspect=fixed;" vertex="1" parent="1">
          <mxGeometry x="80" y="200" width="10" height="10" as="geometry" />
        </mxCell>
        <mxCell id="KJvGZSESiML9NRiCF27s-29" value="" style="ellipse;whiteSpace=wrap;html=1;aspect=fixed;" vertex="1" parent="1">
          <mxGeometry x="80" y="220" width="10" height="10" as="geometry" />
        </mxCell>
        <mxCell id="KJvGZSESiML9NRiCF27s-30" value="" style="ellipse;whiteSpace=wrap;html=1;aspect=fixed;" vertex="1" parent="1">
          <mxGeometry x="80" y="240" width="10" height="10" as="geometry" />
        </mxCell>
        <mxCell id="KJvGZSESiML9NRiCF27s-31" value="" style="ellipse;whiteSpace=wrap;html=1;aspect=fixed;" vertex="1" parent="1">
          <mxGeometry x="80" y="280" width="10" height="10" as="geometry" />
        </mxCell>
        <mxCell id="KJvGZSESiML9NRiCF27s-32" value="" style="ellipse;whiteSpace=wrap;html=1;aspect=fixed;" vertex="1" parent="1">
          <mxGeometry x="80" y="260" width="10" height="10" as="geometry" />
        </mxCell>
        <mxCell id="KJvGZSESiML9NRiCF27s-33" value="" style="ellipse;whiteSpace=wrap;html=1;aspect=fixed;" vertex="1" parent="1">
          <mxGeometry x="80" y="300" width="10" height="10" as="geometry" />
        </mxCell>
        <mxCell id="KJvGZSESiML9NRiCF27s-34" value="" style="ellipse;whiteSpace=wrap;html=1;aspect=fixed;" vertex="1" parent="1">
          <mxGeometry x="80" y="320" width="10" height="10" as="geometry" />
        </mxCell>
        <mxCell id="KJvGZSESiML9NRiCF27s-35" value="" style="ellipse;whiteSpace=wrap;html=1;aspect=fixed;" vertex="1" parent="1">
          <mxGeometry x="80" y="340" width="10" height="10" as="geometry" />
        </mxCell>
        <mxCell id="KJvGZSESiML9NRiCF27s-36" value="" style="ellipse;whiteSpace=wrap;html=1;aspect=fixed;" vertex="1" parent="1">
          <mxGeometry x="80" y="360" width="10" height="10" as="geometry" />
        </mxCell>
        <mxCell id="KJvGZSESiML9NRiCF27s-37" value="" style="ellipse;whiteSpace=wrap;html=1;aspect=fixed;" vertex="1" parent="1">
          <mxGeometry x="80" y="380" width="10" height="10" as="geometry" />
        </mxCell>
        <mxCell id="KJvGZSESiML9NRiCF27s-38" value="" style="ellipse;whiteSpace=wrap;html=1;aspect=fixed;" vertex="1" parent="1">
          <mxGeometry x="80" y="400" width="10" height="10" as="geometry" />
        </mxCell>
        <mxCell id="KJvGZSESiML9NRiCF27s-39" value="" style="ellipse;whiteSpace=wrap;html=1;aspect=fixed;" vertex="1" parent="1">
          <mxGeometry x="80" y="420" width="10" height="10" as="geometry" />
        </mxCell>
        <mxCell id="KJvGZSESiML9NRiCF27s-40" value="" style="ellipse;whiteSpace=wrap;html=1;aspect=fixed;" vertex="1" parent="1">
          <mxGeometry x="80" y="440" width="10" height="10" as="geometry" />
        </mxCell>
        <mxCell id="KJvGZSESiML9NRiCF27s-41" value="" style="ellipse;whiteSpace=wrap;html=1;aspect=fixed;" vertex="1" parent="1">
          <mxGeometry x="80" y="480" width="10" height="10" as="geometry" />
        </mxCell>
        <mxCell id="KJvGZSESiML9NRiCF27s-42" value="" style="ellipse;whiteSpace=wrap;html=1;aspect=fixed;" vertex="1" parent="1">
          <mxGeometry x="80" y="460" width="10" height="10" as="geometry" />
        </mxCell>
        <mxCell id="KJvGZSESiML9NRiCF27s-45" value="" style="rounded=0;whiteSpace=wrap;html=1;" vertex="1" parent="1">
          <mxGeometry x="250" y="70" width="80" height="190" as="geometry" />
        </mxCell>
        <mxCell id="KJvGZSESiML9NRiCF27s-46" value="" style="ellipse;whiteSpace=wrap;html=1;aspect=fixed;" vertex="1" parent="1">
          <mxGeometry x="260" y="90" width="10" height="10" as="geometry" />
        </mxCell>
        <mxCell id="KJvGZSESiML9NRiCF27s-47" value="" style="ellipse;whiteSpace=wrap;html=1;aspect=fixed;" vertex="1" parent="1">
          <mxGeometry x="260" y="110" width="10" height="10" as="geometry" />
        </mxCell>
        <mxCell id="KJvGZSESiML9NRiCF27s-48" value="" style="ellipse;whiteSpace=wrap;html=1;aspect=fixed;" vertex="1" parent="1">
          <mxGeometry x="260" y="130" width="10" height="10" as="geometry" />
        </mxCell>
        <mxCell id="KJvGZSESiML9NRiCF27s-49" value="" style="ellipse;whiteSpace=wrap;html=1;aspect=fixed;" vertex="1" parent="1">
          <mxGeometry x="260" y="150" width="10" height="10" as="geometry" />
        </mxCell>
        <mxCell id="KJvGZSESiML9NRiCF27s-51" value="" style="ellipse;whiteSpace=wrap;html=1;aspect=fixed;" vertex="1" parent="1">
          <mxGeometry x="260" y="170" width="10" height="10" as="geometry" />
        </mxCell>
        <mxCell id="KJvGZSESiML9NRiCF27s-52" value="" style="ellipse;whiteSpace=wrap;html=1;aspect=fixed;" vertex="1" parent="1">
          <mxGeometry x="260" y="190" width="10" height="10" as="geometry" />
        </mxCell>
        <mxCell id="KJvGZSESiML9NRiCF27s-53" value="" style="ellipse;whiteSpace=wrap;html=1;aspect=fixed;" vertex="1" parent="1">
          <mxGeometry x="260" y="210" width="10" height="10" as="geometry" />
        </mxCell>
        <mxCell id="KJvGZSESiML9NRiCF27s-54" value="" style="ellipse;whiteSpace=wrap;html=1;aspect=fixed;" vertex="1" parent="1">
          <mxGeometry x="260" y="230" width="10" height="10" as="geometry" />
        </mxCell>
        <mxCell id="KJvGZSESiML9NRiCF27s-55" value="" style="rounded=0;whiteSpace=wrap;html=1;" vertex="1" parent="1">
          <mxGeometry x="250" y="275" width="80" height="85" as="geometry" />
        </mxCell>
        <mxCell id="KJvGZSESiML9NRiCF27s-59" value="" style="ellipse;whiteSpace=wrap;html=1;aspect=fixed;" vertex="1" parent="1">
          <mxGeometry x="260" y="340" width="10" height="10" as="geometry" />
        </mxCell>
        <mxCell id="KJvGZSESiML9NRiCF27s-60" value="" style="ellipse;whiteSpace=wrap;html=1;aspect=fixed;" vertex="1" parent="1">
          <mxGeometry x="260" y="320" width="10" height="10" as="geometry" />
        </mxCell>
        <mxCell id="KJvGZSESiML9NRiCF27s-61" value="" style="ellipse;whiteSpace=wrap;html=1;aspect=fixed;" vertex="1" parent="1">
          <mxGeometry x="260" y="300" width="10" height="10" as="geometry" />
        </mxCell>
        <mxCell id="KJvGZSESiML9NRiCF27s-62" value="" style="ellipse;whiteSpace=wrap;html=1;aspect=fixed;" vertex="1" parent="1">
          <mxGeometry x="260" y="280" width="10" height="10" as="geometry" />
        </mxCell>
      </root>
    </mxGraphModel>
  </diagram>
</mxfile>
